<svg xmlns="http://www.w3.org/2000/svg"  viewBox="0 0 48 48" width="48px" height="48px"><path d="M 22.5 6.09375 C 16.037 6.84075 11 12.34 11 19 C 11 19.36 10.986844 19.720078 10.964844 20.080078 C 12.170844 19.408078 18.009 16.374141 22.5 17.869141 L 22.5 6.09375 z M 25.5 6.09375 L 25.5 17.867188 C 29.989 16.373188 35.828156 19.408078 37.035156 20.080078 C 37.012156 19.720078 37 19.36 37 19 C 37 12.34 31.963 6.84075 25.5 6.09375 z M 20.169922 20.46875 C 19.878969 20.451672 19.578891 20.454906 19.275391 20.472656 C 19.714391 20.838656 20 21.383 20 22 C 20 23.105 19.104 24 18 24 C 16.896 24 16 23.105 16 22 C 16 21.661 16.091234 21.346406 16.240234 21.066406 C 14.596234 21.578406 13.105813 22.298922 12.257812 22.794922 C 12.020813 22.934922 11.759953 23 11.501953 23 C 11.175953 23 10.861609 22.883594 10.599609 22.683594 C 10.289609 24.127594 9.8054844 25.533516 9.1464844 26.853516 L 5.8144531 33.517578 C 5.4434531 34.257578 5.4622344 35.130516 5.8652344 35.853516 C 6.2682344 36.576516 6.9992656 37.051953 7.8222656 37.126953 L 15.394531 37.8125 L 14.052734 32.894531 C 13.834734 32.095531 14.305469 31.270734 15.105469 31.052734 C 15.902469 30.836734 16.729266 31.306469 16.947266 32.105469 L 17.677734 34.783203 L 22.728516 26.705078 C 22.993516 26.283078 23.448312 26.018953 23.945312 26.001953 C 24.468312 25.983953 24.918891 26.213234 25.212891 26.615234 L 31.285156 34.925781 L 32.054688 32.105469 C 32.272688 31.305469 33.101484 30.835734 33.896484 31.052734 C 34.696484 31.270734 35.167219 32.095531 34.949219 32.894531 L 33.632812 37.720703 L 40.177734 37.126953 C 41.001734 37.051953 41.734719 36.575516 42.136719 35.853516 C 42.538719 35.131516 42.5575 34.258531 42.1875 33.519531 L 38.855469 26.855469 C 38.195469 25.535469 37.710391 24.127594 37.400391 22.683594 C 37.137391 22.882594 36.824047 23 36.498047 23 C 36.240047 23 35.978234 22.934922 35.740234 22.794922 C 34.893234 22.298922 33.402766 21.578406 31.759766 21.066406 C 31.908766 21.346406 32 21.661 32 22 C 32 23.105 31.104 24 30 24 C 28.896 24 28 23.105 28 22 C 28 21.383 28.285609 20.839656 28.724609 20.472656 C 27.510609 20.401656 26.373 20.587125 25.5 21.203125 L 25.5 22 C 25.5 22.828 24.828 23.5 24 23.5 C 23.172 23.5 22.5 22.828 22.5 22 L 22.5 21.203125 C 21.84525 20.741125 21.042781 20.519984 20.169922 20.46875 z M 24.097656 30.175781 L 17.957031 40 L 30.5 40 C 30.736 40 30.951344 39.929078 31.152344 39.830078 L 24.097656 30.175781 z"/></svg>